<?xml version="1.0" encoding="iso-8859-1"?>

<!DOCTYPE svg PUBLIC "-//W3C//DTD SVG 1.1//EN" "http://www.w3.org/Graphics/SVG/1.1/DTD/svg11.dtd">
<!-- Uploaded to: SVG Repo, www.svgrepo.com, Generator: SVG Repo Mixer Tools -->
<svg fill="#000000" version="1.1" xmlns="http://www.w3.org/2000/svg" xmlns:xlink="http://www.w3.org/1999/xlink" 
	 width="800px" height="800px" viewBox="0 0 31.985 31.969"
	 xml:space="preserve">
<g id="ace">
	<path d="M11.939,6c0,0-5.275,2.729-6.636,6.834c-0.693,2.455-0.064,3.951,0.563,4.76c0.75,0.971,1.979,1.549,3.288,1.549
		c0.635,0,1.243-0.195,1.779-0.498l-0.314,2.777c-0.021,0.131,0.02,0.293,0.109,0.393c0.087,0.1,0.217,0.186,0.352,0.186h1.95
		c0.135,0,0.264-0.086,0.352-0.186c0.089-0.1,0.129-0.247,0.109-0.378l-0.299-2.681c0.518,0.244,1.088,0.391,1.647,0.391
		c1.308,0,2.538-0.581,3.289-1.552c0.626-0.807,1.255-2.306,0.562-4.761C17.333,8.729,11.939,6,11.939,6z"/>
	<path d="M30.559,4.104L24,2.14V2c0-1.104-0.896-2-2-2H2C0.896,0,0,0.896,0,2v25c0,1.104,0.896,2,2,2h10.611l9.627,2.884
		c1.058,0.317,2.173-0.284,2.489-1.342l7.174-23.948C32.218,5.536,31.616,4.421,30.559,4.104z M2,2h20v25H2V2z"/>
</g>
<g id="Layer_1">
</g>
</svg>