<?xml version="1.0" encoding="iso-8859-1"?>
<!-- Uploaded to: SVG Repo, www.svgrepo.com, Generator: SVG Repo Mixer Tools -->
<svg fill="#000000" height="800px" width="800px" version="1.1" id="Layer_1" xmlns="http://www.w3.org/2000/svg" xmlns:xlink="http://www.w3.org/1999/xlink" 
	 viewBox="0 0 512.002 512.002" xml:space="preserve">
<g>
	<g>
		<path d="M145.069,187.734c-23.526,0-42.667,19.14-42.667,42.667v102.4v8.533v42.667v51.2v51.2v17.067
			c0,4.71,3.814,8.533,8.533,8.533s8.533-3.823,8.533-8.533v-8.533h51.2v8.533c0,4.71,3.814,8.533,8.533,8.533
			c4.719,0,8.533-3.823,8.533-8.533v-17.067v-51.2v-51.2v-42.667v-8.533v-102.4C187.736,206.875,168.595,187.734,145.069,187.734z
			 M170.669,477.868h-51.2v-34.133h51.2V477.868z M170.669,426.669h-51.2v-34.133h51.2V426.669z M170.669,375.469h-51.2v-34.133
			h51.2V375.469z"/>
	</g>
</g>
<g>
	<g>
		<path d="M503.469,460.802h-17.067c-52.685,0-85.333-11.426-85.333-68.267c0-82.44-80.137-123.998-128-136.243v-60.024h42.667
			c4.719,0,8.533-3.823,8.533-8.533c0-23.526-19.14-42.667-42.667-42.667h-8.533v-25.6h8.533c3.678,0,6.929-2.355,8.09-5.837
			c1.169-3.49-0.034-7.322-2.97-9.523L150.189,1.708c-3.038-2.278-7.202-2.278-10.24,0L3.416,104.109
			c-2.935,2.202-4.139,6.033-2.97,9.523c1.152,3.482,4.412,5.837,8.09,5.837h8.533v213.333c0,4.71,3.814,8.533,8.533,8.533h8.533
			v162.133c0,4.71,3.814,8.533,8.533,8.533h34.134c4.719,0,8.533-3.823,8.533-8.533V341.336v-8.533v-102.4
			c0-32.939,26.803-59.733,59.733-59.733c32.93,0,59.733,26.795,59.733,59.733v102.4v8.533v162.133c0,4.71,3.814,8.533,8.533,8.533
			h34.133c4.719,0,8.533-3.823,8.533-8.533V341.336h8.533c4.719,0,8.533-3.823,8.533-8.533v-22.46
			c24.866,7.859,76.8,30.438,76.8,82.193c0,54.494,23.68,119.467,136.533,119.467h17.067c4.719,0,8.533-3.823,8.533-8.533v-34.133
			C512.002,464.617,508.188,460.802,503.469,460.802z M68.269,494.935H51.202v-153.6h17.067V494.935z M238.936,494.935h-17.067
			v-153.6h17.067V494.935z M34.136,102.401l110.933-83.2l110.933,83.2H34.136z M273.069,162.135L273.069,162.135h8.533
			c11.127,0,20.617,7.125,24.141,17.067h-32.674V162.135z"/>
	</g>
</g>
</svg>