<?xml version="1.0" encoding="iso-8859-1"?>
<!-- Uploaded to: SVG Repo, www.svgrepo.com, Generator: SVG Repo Mixer Tools -->
<svg fill="#000000" height="800px" width="800px" version="1.1" id="Layer_1" xmlns="http://www.w3.org/2000/svg" xmlns:xlink="http://www.w3.org/1999/xlink" 
	 viewBox="0 0 512 512" xml:space="preserve">
<g>
	<g>
		<path d="M77.913,345.043c-9.217,0-16.696,7.473-16.696,16.696v33.391c0,9.223,7.479,16.696,16.696,16.696
			c9.217,0,16.696-7.473,16.696-16.696v-33.391C94.609,352.516,87.13,345.043,77.913,345.043z"/>
	</g>
</g>
<g>
	<g>
		<path d="M77.913,445.217c-9.217,0-16.696,7.473-16.696,16.696v33.391c0,9.223,7.479,16.696,16.696,16.696
			c9.217,0,16.696-7.473,16.696-16.696v-33.391C94.609,452.69,87.13,445.217,77.913,445.217z"/>
	</g>
</g>
<g>
	<g>
		<path d="M144.696,345.043c-9.217,0-16.696,7.473-16.696,16.696v33.391c0,9.223,7.479,16.696,16.696,16.696
			s16.696-7.473,16.696-16.696v-33.391C161.391,352.516,153.913,345.043,144.696,345.043z"/>
	</g>
</g>
<g>
	<g>
		<path d="M144.696,445.217c-9.217,0-16.696,7.473-16.696,16.696v33.391c0,9.223,7.479,16.696,16.696,16.696
			s16.696-7.473,16.696-16.696v-33.391C161.391,452.69,153.913,445.217,144.696,445.217z"/>
	</g>
</g>
<g>
	<g>
		<path d="M356.174,345.043c-9.217,0-16.696,7.473-16.696,16.696v33.391c0,9.223,7.479,16.696,16.696,16.696
			c9.217,0,16.696-7.473,16.696-16.696v-33.391C372.87,352.516,365.391,345.043,356.174,345.043z"/>
	</g>
</g>
<g>
	<g>
		<path d="M356.174,445.217c-9.217,0-16.696,7.473-16.696,16.696v33.391c0,9.223,7.479,16.696,16.696,16.696
			c9.217,0,16.696-7.473,16.696-16.696v-33.391C372.87,452.69,365.391,445.217,356.174,445.217z"/>
	</g>
</g>
<g>
	<g>
		<path d="M422.957,345.043c-9.217,0-16.696,7.473-16.696,16.696v33.391c0,9.223,7.479,16.696,16.696,16.696
			c9.217,0,16.696-7.473,16.696-16.696v-33.391C439.652,352.516,432.174,345.043,422.957,345.043z"/>
	</g>
</g>
<g>
	<g>
		<path d="M422.957,445.217c-9.217,0-16.696,7.473-16.696,16.696v33.391c0,9.223,7.479,16.696,16.696,16.696
			c9.217,0,16.696-7.473,16.696-16.696v-33.391C439.652,452.69,432.174,445.217,422.957,445.217z"/>
	</g>
</g>
<g>
	<g>
		<path d="M304.478,421.369c-2.76-5.826-8.641-9.543-15.086-9.543h-42.685l27.783-33.951c5.837-7.136,4.783-17.652-2.347-23.494
			c-7.152-5.848-17.652-4.783-23.5,2.353l-50.087,61.217c-4.087,4.989-4.924,11.892-2.163,17.723
			c2.76,5.826,8.641,9.543,15.086,9.543h42.685l-27.783,33.951c-5.837,7.136-4.783,17.652,2.347,23.494
			c3.109,2.538,6.847,3.772,10.565,3.772c4.837,0,9.63-2.087,12.935-6.125l50.087-61.217
			C306.402,434.104,307.239,427.201,304.478,421.369z"/>
	</g>
</g>
<g>
	<g>
		<path d="M439.554,135.277c0.013-0.587,0.098-1.119,0.098-1.712C439.652,59.918,379.739,0,306.087,0
			c-36.24,0-70.331,14.831-95.506,40.996c-11.894-4.9-24.772-7.604-38.059-7.604c-55.239,0-100.174,44.94-100.174,100.174
			c0,0.557,0.075,1.113,0.085,1.67c-38.099,7.723-66.867,41.463-66.867,81.809c0,46.032,37.446,83.478,83.478,83.478h333.913
			c46.032,0,83.478-37.446,83.478-83.478C506.435,176.759,477.739,143.066,439.554,135.277z"/>
	</g>
</g>
</svg>